<svg id="图层_1" data-name="图层 1" xmlns="http://www.w3.org/2000/svg" viewBox="0 0 48 48"><defs><style>.cls-1{opacity:0.8;}.cls-2{fill:#46cbff;}.cls-3,.cls-7{fill:none;}.cls-3{stroke:#376da4;}.cls-3,.cls-4,.cls-7{stroke-linecap:round;stroke-linejoin:round;stroke-width:2px;}.cls-4,.cls-5{fill:#dcf5ff;}.cls-4{stroke:#4881b8;}.cls-6{fill:#4881b8;}.cls-7{stroke:#fff;}.cls-8{fill:#fff;}</style></defs><title>see_momo</title><g class="cls-1"><rect class="cls-2" x="7.46" y="7.46" width="28.35" height="32.15" rx="1.88" ry="1.88"/><line class="cls-3" x1="36.42" y1="35.6" x2="40.54" y2="40.54"/><circle class="cls-4" cx="31.22" cy="29.38" r="7.78" transform="translate(-11.57 26.84) rotate(-39.87)"/><path class="cls-5" d="M31.23,37.17a7.79,7.79,0,1,1,5-1.81A7.77,7.77,0,0,1,31.23,37.17Z"/><path class="cls-6" d="M31.22,22.59h0a6.79,6.79,0,1,1-4.35,1.58,6.78,6.78,0,0,1,4.35-1.58m0-2A8.79,8.79,0,1,0,38,23.74a8.76,8.76,0,0,0-6.75-3.16Z"/><line class="cls-7" x1="12.43" y1="14.1" x2="30.84" y2="14.1"/><line class="cls-7" x1="12.43" y1="23.54" x2="20.46" y2="23.54"/><line class="cls-7" x1="12.43" y1="32.97" x2="17.84" y2="32.97"/><path class="cls-8" d="M35.81,24.43v9.88a6.72,6.72,0,0,0,0-9.88Z"/></g></svg>