<svg id="图层_1" data-name="图层 1" xmlns="http://www.w3.org/2000/svg" viewBox="0 0 48 48"><defs><style>.cls-1{fill:#cbcfdc;}.cls-2{fill:none;stroke:#a6aab2;stroke-linecap:round;stroke-linejoin:round;stroke-width:2px;}.cls-3{fill:#fff;}.cls-4{fill:#a6aab2;}</style></defs><title>edit_nono</title><rect class="cls-1" x="8.32" y="5.6" width="28.11" height="35.9" rx="1.98" ry="1.98"/><line class="cls-2" x1="6.28" y1="14.09" x2="11.09" y2="14.09"/><line class="cls-2" x1="6.28" y1="32.95" x2="11.09" y2="32.95"/><line class="cls-2" x1="6.28" y1="23.52" x2="11.09" y2="23.52"/><circle class="cls-3" cx="11.35" cy="14.09" r="1"/><circle class="cls-3" cx="11.35" cy="23.52" r="1"/><circle class="cls-3" cx="11.35" cy="32.95" r="1"/><rect class="cls-4" x="30.17" y="15.64" width="5.03" height="22.06" rx="0.5" ry="0.5" transform="translate(13.28 -10.78) rotate(23.39)"/><rect class="cls-4" x="36.08" y="10.57" width="5.03" height="4.89" rx="0.5" ry="0.5" transform="translate(8.34 -14.25) rotate(23.39)"/><path class="cls-4" d="M25.69,42.11a.33.33,0,0,0,.52.22L28,41l1.76-1.31a.33.33,0,0,0-.07-.56l-2-.87-2-.87a.33.33,0,0,0-.45.34l.25,2.18Z"/></svg>