<svg id="图层_1" data-name="图层 1" xmlns="http://www.w3.org/2000/svg" viewBox="0 0 48 48"><defs><style>.cls-1{opacity:0.8;}.cls-2{fill:#aae06c;}.cls-3,.cls-7{fill:none;}.cls-3{stroke:#066037;stroke-linecap:round;stroke-linejoin:round;stroke-width:2px;}.cls-4{fill:#fff;}.cls-5{fill:#fa9e6e;}.cls-6{fill:#e3743c;}</style></defs><title>edit_momo</title><g class="cls-1"><rect class="cls-2" x="9.04" y="6.08" width="28.11" height="35.9" rx="1.98" ry="1.98"/><line class="cls-3" x1="7" y1="14.57" x2="11.81" y2="14.57"/><line class="cls-3" x1="7" y1="33.43" x2="11.81" y2="33.43"/><line class="cls-3" x1="7" y1="24" x2="11.81" y2="24"/><circle class="cls-4" cx="12.07" cy="14.57" r="1"/><circle class="cls-4" cx="12.07" cy="24" r="1"/><circle class="cls-4" cx="12.07" cy="33.43" r="1"/><rect class="cls-5" x="30.88" y="16.12" width="5.03" height="22.06" rx="0.5" ry="0.5" transform="translate(13.53 -11.03) rotate(23.39)"/><rect class="cls-6" x="36.79" y="11.05" width="5.03" height="4.89" rx="0.5" ry="0.5" transform="translate(8.59 -14.5) rotate(23.39)"/><path class="cls-6" d="M26.41,42.59a.33.33,0,0,0,.52.22l1.76-1.31,1.76-1.31a.33.33,0,0,0-.07-.56l-2-.87-2-.87a.33.33,0,0,0-.45.34l.25,2.18Z"/><rect id="_切片_" data-name="&lt;切片&gt;" class="cls-7" width="48" height="48"/></g></svg>