<svg id="图层_1" data-name="图层 1" xmlns="http://www.w3.org/2000/svg" viewBox="0 0 48 48"><defs><style>.cls-1{fill:#cbcfdc;}.cls-2{fill:#fff;}.cls-3{fill:#fa9e6e;}.cls-4{fill:#a6aab2;}</style></defs><title>xiugai_nono</title><rect class="cls-1" x="19.04" y="4.56" width="8.07" height="38.84" rx="0.9" ry="0.9" transform="translate(55.98 29) rotate(142.57)"/><rect class="cls-2" x="11.21" y="9.57" width="4.51" height="1.01" rx="0.51" ry="0.51" transform="translate(30.28 9.9) rotate(142.57)"/><rect class="cls-2" x="14.69" y="11.51" width="2.74" height="1.01" rx="0.51" ry="0.51" transform="translate(36.12 11.79) rotate(142.57)"/><rect class="cls-2" x="15" y="14.52" width="4.51" height="1.01" rx="0.51" ry="0.51" transform="translate(40.09 16.47) rotate(142.57)"/><rect class="cls-2" x="18.48" y="16.46" width="2.74" height="1.01" rx="0.51" ry="0.51" transform="translate(45.93 18.37) rotate(142.57)"/><rect class="cls-2" x="18.79" y="19.47" width="4.51" height="1.01" rx="0.51" ry="0.51" transform="translate(49.9 23.05) rotate(142.57)"/><rect class="cls-2" x="22.27" y="21.41" width="2.74" height="1.01" rx="0.51" ry="0.51" transform="translate(55.73 24.95) rotate(142.57)"/><rect class="cls-2" x="22.58" y="24.42" width="4.51" height="1.01" rx="0.51" ry="0.51" transform="translate(59.7 29.63) rotate(142.57)"/><rect class="cls-2" x="26.06" y="26.36" width="2.74" height="1.01" rx="0.51" ry="0.51" transform="translate(65.54 31.53) rotate(142.57)"/><rect class="cls-2" x="26.36" y="29.37" width="4.51" height="1.01" rx="0.51" ry="0.51" transform="translate(69.51 36.21) rotate(142.57)"/><rect class="cls-2" x="29.85" y="31.31" width="2.74" height="1.01" rx="0.51" ry="0.51" transform="translate(75.35 38.11) rotate(142.57)"/><rect class="cls-2" x="30.15" y="34.32" width="4.51" height="1.01" rx="0.51" ry="0.51" transform="translate(79.32 42.79) rotate(142.57)"/><rect class="cls-2" x="33.64" y="36.26" width="2.74" height="1.01" rx="0.51" ry="0.51" transform="matrix(-0.79, 0.61, -0.61, -0.79, 85.15, 44.69)"/><polyline class="cls-3" points="12.25 35.8 12.25 35.8 12.25 35.8 12.25 35.8 12.25 35.8"/><rect class="cls-4" x="30.76" y="8.06" width="8.07" height="6.01" rx="0.65" ry="0.65" transform="matrix(0.79, 0.61, -0.61, 0.79, 14.06, -18.99)"/><rect class="cls-4" x="19.85" y="11.86" width="8.07" height="26.6" rx="0.76" ry="0.76" transform="translate(20.41 -9.36) rotate(37.76)"/><rect class="cls-1" x="22.03" y="11.86" width="3.72" height="26.6" rx="0.59" ry="0.59" transform="translate(20.41 -9.36) rotate(37.76)"/><path class="cls-4" d="M11.57,41.52a.36.36,0,0,1-.46-.35L11.2,38l.08-3a.36.36,0,0,1,.58-.27l2.9,2.24,2.9,2.24a.36.36,0,0,1-.12.63l-2.88.83Z"/></svg>