<svg id="图层_1" data-name="图层 1" xmlns="http://www.w3.org/2000/svg" viewBox="0 0 48 48"><defs><style>.cls-1{fill:#ffc257;}.cls-2{fill:#fff6a4;}.cls-3,.cls-5{fill:#fff;}.cls-4{fill:#ff485e;}.cls-5{stroke:#ff485e;stroke-linecap:round;stroke-linejoin:round;stroke-width:3px;}</style></defs><title>no_enen</title><rect class="cls-1" x="7.79" y="6" width="28.35" height="35.13" rx="2" ry="2"/><rect class="cls-2" x="10.83" y="10.24" width="22.28" height="9.5" rx="1.7" ry="1.7"/><path class="cls-3" d="M27.58,40.5A11.13,11.13,0,1,1,38.71,29.38,11.14,11.14,0,0,1,27.58,40.5Z"/><path class="cls-4" d="M27.58,19.75A9.63,9.63,0,1,1,18,29.38a9.64,9.64,0,0,1,9.63-9.62m0-3A12.63,12.63,0,1,0,40.21,29.38,12.62,12.62,0,0,0,27.58,16.75Z"/><line class="cls-5" x1="19.92" y1="37.04" x2="35.24" y2="21.71"/></svg>