<svg id="图层_1" data-name="图层 1" xmlns="http://www.w3.org/2000/svg" viewBox="0 0 48 48"><defs><style>.cls-1{fill:#cbcfdc;}.cls-2{fill:none;stroke:#fff;stroke-linecap:round;stroke-linejoin:round;stroke-width:2px;}.cls-3{fill:#a6aab2;}.cls-4{fill:#fdfffe;}</style></defs><title>see22_nono</title><rect class="cls-1" x="7.1" y="6.66" width="29.55" height="34.69" rx="1.99" ry="1.99"/><line class="cls-2" x1="12.67" y1="12.53" x2="31.08" y2="12.53"/><line class="cls-2" x1="12.67" y1="17.66" x2="20.58" y2="17.66"/><path class="cls-3" d="M40.61,28.38a1,1,0,0,1,0,1.39c-1.95,2-8,7.54-15.26,7.54S12,31.76,10.08,29.77a1,1,0,0,1,0-1.39c1.95-2,8-7.54,15.26-7.54S38.66,26.39,40.61,28.38Z"/><circle class="cls-4" cx="25.35" cy="29.07" r="6.49"/><path class="cls-3" d="M26.26,26.36a2.76,2.76,0,0,1-3.66,2.13,2.8,2.8,0,1,0,3.66-2.13Z"/></svg>